<svg xmlns="http://www.w3.org/2000/svg" xmlns:xlink="http://www.w3.org/1999/xlink" width="768" height="160" viewBox="0 0 768 160"><defs><clipPath id="a"><path d="M0,0H768a0,0,0,0,1,0,0V160a0,0,0,0,1,0,0H100A100,100,0,0,1,0,60V0A0,0,0,0,1,0,0Z" fill="#5964e0"/></clipPath></defs><path d="M0,0H768a0,0,0,0,1,0,0V160a0,0,0,0,1,0,0H100A100,100,0,0,1,0,60V0A0,0,0,0,1,0,0Z" fill="#5964e0"/><g clip-path="url(#a)"><g transform="translate(-290 -544)"><path d="M221.78,63.394c15.682-27.831,55.758-27.831,71.44,0L480.558,395.873C495.958,423.2,476.209,457,444.838,457H70.162c-31.371,0-51.12-33.8-35.72-61.127Z" transform="matrix(0.819, -0.574, 0.574, 0.819, 326.506, 296.02)" fill="#fff" opacity="0.081"/><path d="M221.78,63.394c15.682-27.831,55.758-27.831,71.44,0L480.558,395.873C495.958,423.2,476.209,457,444.838,457H70.162c-31.371,0-51.12-33.8-35.72-61.127Z" transform="matrix(0.819, -0.574, 0.574, 0.819, 0.506, 691.02)" fill="#fff" opacity="0.081"/></g></g></svg>