<svg xmlns="http://www.w3.org/2000/svg" viewBox="0 0 27 27"><path d="M9.773,0,0,2.389,9.773,4.777A4.414,4.414,0,0,1,9.773,0Z" transform="translate(0 11.111)" fill="#fff" /><path d="M2.848,0A2.848,2.848,0,1,0,5.7,2.848,2.851,2.851,0,0,0,2.848,0Z" transform="translate(10.652 10.652)" fill="#fff"/><path d="M2.389.7A4.4,4.4,0,0,1,0,0L2.389,9.773,4.5,1.118,4.777,0A4.4,4.4,0,0,1,2.389.7Z" transform="translate(11.111 17.227)" fill="#fff"/><path d="M0,0A4.4,4.4,0,0,1,.7,2.389,4.4,4.4,0,0,1,0,4.777l1.1-.268,8.674-2.12Z" transform="translate(17.227 11.111)" fill="#fff"/><path d="M2.389,0,0,9.773a4.414,4.414,0,0,1,4.777,0Z" transform="translate(11.111 0)" fill="#fff"/><path d="M0,3.136l.416,1.7,1.739.425L5.36,0Z" transform="translate(17.045 4.702)" fill="#fff"/><path d="M4.95.424,3.216,0,0,5.281,5.369,2.14Z" transform="translate(4.59 17.037)" fill="#fff"/><path d="M2.149,0,.42.422,0,2.141,5.364,5.28Z" transform="translate(17.04 17.038)" fill="#fff"/><path d="M0,0,3.206,5.264,4.95,4.837l.415-1.7Z" transform="translate(4.59 4.702)" fill="#fff" /></svg>